<?xml version="1.0" standalone="no"?><!DOCTYPE svg PUBLIC "-//W3C//DTD SVG 1.1//EN" "http://www.w3.org/Graphics/SVG/1.1/DTD/svg11.dtd"><svg t="1546847580521" class="icon" style="" viewBox="0 0 1024 1024" version="1.1" xmlns="http://www.w3.org/2000/svg" p-id="7899" xmlns:xlink="http://www.w3.org/1999/xlink" width="200" height="200"><defs><style type="text/css"></style></defs><path d="M426.667022 426.667022H42.668622c-23.594568 0-42.666489 19.285253-42.666489 43.093154v84.479648A42.666489 42.666489 0 0 0 42.668622 597.332978h383.9984v383.9984c0 23.594568 19.285253 42.666489 43.093154 42.666489h84.479648A42.666489 42.666489 0 0 0 597.332978 981.331378v-383.9984h383.9984c23.594568 0 42.666489-19.285253 42.666489-43.093154v-84.479648A42.666489 42.666489 0 0 0 981.331378 426.667022h-383.9984V42.668622c0-23.594568-19.285253-42.666489-43.093154-42.666489h-84.479648A42.666489 42.666489 0 0 0 426.667022 42.668622v383.9984z" fill="#222222" p-id="7900"></path></svg>