<?xml version="1.0" standalone="no"?><!DOCTYPE svg PUBLIC "-//W3C//DTD SVG 1.1//EN" "http://www.w3.org/Graphics/SVG/1.1/DTD/svg11.dtd"><svg t="1548645290899" class="icon" style="" viewBox="0 0 1024 1024" version="1.1" xmlns="http://www.w3.org/2000/svg" p-id="3912" xmlns:xlink="http://www.w3.org/1999/xlink" width="200" height="200"><defs><style type="text/css"></style></defs><path d="M941.511 571.733H810.667c-28.445 0-51.2-22.755-51.2-51.2v-89.6c0-34.133-14.223-65.422-41.245-86.755L520.533 179.2v-66.844c2.845 1.422 8.534 2.844 17.067 5.688 44.089 15.645 62.578 8.534 79.644-2.844 49.778-11.378 56.89 5.689 69.69 2.844 14.222-4.266 9.955-15.644 8.533-21.333-1.423-5.689 0-48.355 2.844-62.578 2.845-14.222 4.267-19.91-4.267-27.022-59.733-17.067-92.444 1.422-116.622 9.956-25.6 9.955-56.889-5.69-56.889-5.69h-18.489v166.4l-192 164.979c-24.177 21.333-39.822 52.622-39.822 85.333v91.022c0 28.445-22.755 51.2-51.2 51.2H82.49c-34.133 0-61.156 28.445-61.156 61.156V960c0 35.556 27.023 64 61.156 64h277.333c29.867 0 55.467-25.6 54.045-55.467 0-36.977-1.423-76.8-1.423-76.8 0-54.044 44.09-98.133 96.712-98.133 54.044 0 96.71 44.089 96.71 98.133 0 0 0 41.245-1.422 76.8 0 31.29 24.178 55.467 54.045 55.467h278.755c34.134 0 61.156-28.444 61.156-61.156V632.89c4.267-34.133-22.756-61.156-56.889-61.156m-395.378-93.866c-21.333 12.8-46.933 12.8-68.266 0s-34.134-35.556-34.134-59.734c0-38.4 31.29-69.689 68.267-69.689 38.4 0 68.267 31.29 68.267 69.69 0 25.6-12.8 48.355-34.134 59.733" p-id="3913"></path></svg>
