<?xml version="1.0" standalone="no"?><!DOCTYPE svg PUBLIC "-//W3C//DTD SVG 1.1//EN" "http://www.w3.org/Graphics/SVG/1.1/DTD/svg11.dtd"><svg t="1553051196894" class="icon" style="" viewBox="0 0 1024 1024" version="1.1" xmlns="http://www.w3.org/2000/svg" p-id="3435" xmlns:xlink="http://www.w3.org/1999/xlink" width="200" height="200"><defs><style type="text/css"></style></defs><path d="M505.6 640a128 128 0 1 0 0-256 128 128 0 0 0 0 256zM243.2 230.4a360.96 360.96 0 0 1 153.6-83.2L448 0h128l51.2 147.2a446.912 446.912 0 0 1 153.6 83.2l153.6-32 64 115.2L896 428.8a364.8 364.8 0 0 1 6.4 83.2c0 25.6-6.4 57.6-6.4 83.2l102.4 115.2-64 115.2-153.6-32a360.96 360.96 0 0 1-153.6 83.2L576 1024H448l-51.2-147.2a446.912 446.912 0 0 1-153.6-83.2l-153.6 32-64-115.2L128 595.2A364.8 364.8 0 0 1 121.6 512c0-25.6 6.4-57.6 6.4-83.2L25.6 313.6l64-115.2 153.6 32z" p-id="3436"></path></svg>